<svg width="27" height="18" viewBox="0 0 27 18" fill="none" xmlns="http://www.w3.org/2000/svg">
<rect width="27" height="18" rx="2" fill="white"/>
<rect x="0.5" y="0.5" width="26" height="17" rx="1.5" stroke="black" stroke-opacity="0.2"/>
<path d="M11.2018 4.81708H15.7983V13.0763H11.2018V4.81708Z" fill="#FF5F00"/>
<path d="M11.4936 8.94667C11.4936 7.26856 12.2815 5.78015 13.4927 4.81706C12.6026 4.11663 11.479 3.69345 10.2532 3.69345C7.34936 3.69345 5 6.04281 5 8.94667C5 11.8505 7.34936 14.1999 10.2532 14.1999C11.479 14.1999 12.6026 13.7767 13.4927 13.0763C12.2815 12.1278 11.4936 10.6248 11.4936 8.94667Z" fill="#EB001B"/>
<path d="M22 8.94667C22 11.8505 19.6507 14.1999 16.7468 14.1999C15.5211 14.1999 14.3975 13.7767 13.5073 13.0763C14.7331 12.1132 15.5065 10.6248 15.5065 8.94667C15.5065 7.26856 14.7185 5.78015 13.5073 4.81706C14.3975 4.11663 15.5211 3.69345 16.7468 3.69345C19.6507 3.69345 22 6.0574 22 8.94667Z" fill="#F79E1B"/>
</svg>
