<svg width="27" height="18" viewBox="0 0 27 18" fill="none" xmlns="http://www.w3.org/2000/svg">
<rect width="27" height="18" rx="2" fill="white"/>
<rect x="0.5" y="0.5" width="26" height="17" rx="1.5" stroke="black" stroke-opacity="0.2"/>
<path d="M16.6781 5.48602C15.187 5.48602 13.8545 6.25888 13.8545 7.68679C13.8545 9.32433 16.2177 9.43744 16.2177 10.2601C16.2177 10.6065 15.8208 10.9165 15.1428 10.9165C14.1806 10.9165 13.4614 10.4833 13.4614 10.4833L13.1537 11.9242C13.1537 11.9242 13.9822 12.2902 15.0821 12.2902C16.7123 12.2902 17.9951 11.4794 17.9951 10.0271C17.9951 8.29669 15.622 8.18695 15.622 7.42339C15.622 7.15204 15.9479 6.85473 16.6239 6.85473C17.3867 6.85473 18.009 7.16983 18.009 7.16983L18.3102 5.77815C18.3102 5.77815 17.633 5.48602 16.6781 5.48602V5.48602ZM3.03611 5.59106L3 5.80112C3 5.80112 3.6273 5.91593 4.19229 6.14494C4.91975 6.40755 4.97157 6.56043 5.09409 7.03526L6.42916 12.1819H8.21882L10.9759 5.59106H9.19037L7.41876 10.0722L6.69584 6.27377C6.62954 5.83904 6.29372 5.59106 5.88266 5.59106H3.03611V5.59106ZM11.6939 5.59106L10.2932 12.1819H11.9959L13.3917 5.59106H11.6939V5.59106ZM21.1904 5.59106C20.7798 5.59106 20.5623 5.81087 20.4026 6.19499L17.9081 12.1819H19.6937L20.0391 11.1841H22.2144L22.4245 12.1819H24L22.6255 5.59106H21.1904V5.59106ZM21.4226 7.37169L21.9519 9.84489H20.5339L21.4226 7.37169V7.37169Z" fill="#1434CB"/>
</svg>
